<svg xmlns="http://www.w3.org/2000/svg" viewBox="0 0 120 120" role="img" aria-label="Congrats">
  <defs>
    <radialGradient id="cg-seal" cx="36%" cy="30%" r="80%"><stop offset="0" stop-color="#FF809F"/><stop offset="0.5" stop-color="#F0436E"/><stop offset="1" stop-color="#8F1638"/></radialGradient>
    <linearGradient id="cg-gold" x1="0" y1="0" x2="1" y2="1"><stop offset="0" stop-color="#F8E3A0"/><stop offset="0.5" stop-color="#E2B54A"/><stop offset="1" stop-color="#B3802A"/></linearGradient>
    <filter id="cg-sh" x="-30%" y="-30%" width="160%" height="160%"><feDropShadow dx="0" dy="2" stdDeviation="3" flood-color="#4A0819" flood-opacity="0.5"/></filter>
  </defs>
  <g filter="url(#cg-sh)"><path d="M113.8 62.0 L113.2 64.0 L111.7 65.9 L109.7 67.6 L107.6 69.2 L105.9 70.7 L105.1 72.3 L105.2 74.1 L106.0 76.2 L107.2 78.5 L108.3 81.0 L108.8 83.3 L108.4 85.3 L107.1 86.9 L104.9 87.9 L102.3 88.6 L99.8 89.1 L97.6 89.8 L96.2 90.8 L95.4 92.5 L95.3 94.7 L95.4 97.4 L95.3 100.0 L94.7 102.4 L93.5 104.0 L91.6 104.8 L89.2 104.9 L86.6 104.3 L84.1 103.7 L81.8 103.3 L80.1 103.7 L78.7 104.9 L77.6 106.8 L76.5 109.2 L75.3 111.6 L73.8 113.4 L72.0 114.4 L69.9 114.3 L67.7 113.3 L65.6 111.7 L63.6 110.0 L61.7 108.7 L60.0 108.2 L58.3 108.7 L56.4 110.0 L54.4 111.7 L52.3 113.3 L50.1 114.3 L48.0 114.4 L46.2 113.4 L44.7 111.6 L43.5 109.2 L42.4 106.8 L41.3 104.9 L39.9 103.7 L38.2 103.3 L35.9 103.7 L33.4 104.3 L30.8 104.9 L28.4 104.8 L26.5 104.0 L25.3 102.4 L24.7 100.0 L24.6 97.4 L24.7 94.7 L24.6 92.5 L23.8 90.8 L22.4 89.8 L20.2 89.1 L17.7 88.6 L15.1 87.9 L12.9 86.9 L11.6 85.3 L11.2 83.3 L11.7 81.0 L12.8 78.5 L14.0 76.2 L14.8 74.1 L14.9 72.3 L14.1 70.7 L12.4 69.2 L10.3 67.6 L8.3 65.9 L6.8 64.0 L6.2 62.0 L6.8 60.0 L8.3 58.1 L10.3 56.4 L12.4 54.8 L14.1 53.3 L14.9 51.7 L14.8 49.9 L14.0 47.8 L12.8 45.5 L11.7 43.0 L11.2 40.7 L11.6 38.7 L12.9 37.1 L15.1 36.1 L17.7 35.4 L20.2 34.9 L22.4 34.2 L23.8 33.2 L24.6 31.5 L24.7 29.3 L24.6 26.6 L24.7 24.0 L25.3 21.6 L26.5 20.0 L28.4 19.2 L30.8 19.1 L33.4 19.7 L35.9 20.3 L38.2 20.7 L39.9 20.3 L41.3 19.1 L42.4 17.2 L43.5 14.8 L44.7 12.4 L46.2 10.6 L48.0 9.6 L50.1 9.7 L52.3 10.7 L54.4 12.3 L56.4 14.0 L58.3 15.3 L60.0 15.8 L61.7 15.3 L63.6 14.0 L65.6 12.3 L67.7 10.7 L69.9 9.7 L72.0 9.6 L73.8 10.6 L75.3 12.4 L76.5 14.8 L77.6 17.2 L78.7 19.1 L80.1 20.3 L81.8 20.7 L84.1 20.3 L86.6 19.7 L89.2 19.1 L91.6 19.2 L93.5 20.0 L94.7 21.6 L95.3 24.0 L95.4 26.6 L95.3 29.3 L95.4 31.5 L96.2 33.2 L97.6 34.2 L99.8 34.9 L102.3 35.4 L104.9 36.1 L107.1 37.1 L108.4 38.7 L108.8 40.7 L108.3 43.0 L107.2 45.5 L106.0 47.8 L105.2 49.9 L105.1 51.7 L105.9 53.3 L107.6 54.8 L109.7 56.4 L111.7 58.1 L113.2 60.0 L113.8 62.0Z" fill="url(#cg-seal)"/></g>
  <circle cx="60" cy="62" r="42.0" fill="none" stroke="#FFD0DB" stroke-opacity="0.4" stroke-width="1.7"/>
  <path d="M78.2 41.7 A27.250000000000004 27.250000000000004 0 1 0 78.2 82.3" fill="none" stroke="#FFF7F9" stroke-width="11.5" stroke-linecap="round"/>
  <path d="M86.0 50.5 C89.2 58.8 89.2 58.8 97.5 62.0 C89.2 65.2 89.2 65.2 86.0 73.5 C82.8 65.2 82.8 65.2 74.5 62.0 C82.8 58.8 82.8 58.8 86.0 50.5Z" fill="url(#cg-gold)"/>
</svg>